# xmcd CD database file
# Copyright (C) 1993-1998 Ti Kan
# 
# Track frame offsets:
#     150
#     14615
#     32805
#     46257
#     59052
#     74750
#     85365
#     100495
#     110200
#     121185
#     132822
#     148272
#     164587
#     175325
#     185447
#     199610
#     212247
#     222977
# 
# Disc length: 3167 seconds
# 
# Revision: 1
# Processed by: cddbd v1.4b41PL1 Copyright (c) Steve Scherf et al.
# Submitted via: DiscPlay 4.0.4
# 
DISCID=250c5d12
DTITLE=Var. - THE BLUES COLLECTION
DYEAR=1900
DGENRE=
TTITLE0=So Much To Say - ROD STEWART
TTITLE1=True Blue - SAVOY BROWN BLUES BAND
TTITLE2=Piano Shuffle - NICKY HOPKINS and THE ALL STARS
TTITLE3=Freight Loader - ERIC CLAPTON and JIMMY PAGE
TTITLE4=Water On My Fire - ALBERT LEE
TTITLE5=Someone To Love Me - TONY McPHEE
TTITLE6=Albert - SANTA BARBARA and MACHINE HEAD
TTITLE7=Roll'em Pete - DHARMA BLUES BAND
TTITLE8=Miles Road - ERIC CLAPTON and JIMMY PAGE
TTITLE9=Who's Knocking - JEREMY SPENCER
TTITLE10=Down In The Boots - JIMMY PAGE and THE ALL STARS
TTITLE11=Can't Quit You Baby - SAVOY BROWN BLUES BAND
TTITLE12=You Don't Love Me - TONY McPHEE
TTITLE13=Not Fade Away - CYRIL DAVIES and THE ALL STARS
TTITLE14=Draggin' My Tail - ERIC CLAPTON and JIMMY PAGE
TTITLE15=On Top Of The World - JOHN MAYALL and THE BLUESBREAKERS (FEATURING ER
TTITLE15=IC CLAPTON)
TTITLE16=Chuckles - JEFF BECK and THE ALL STARS
TTITLE17=Porcupine Juice - SANTA BARBARA and MACHINE HEAD
EXTD=
EXTT0=
EXTT1=
EXTT2=
EXTT3=
EXTT4=
EXTT5=
EXTT6=
EXTT7=
EXTT8=
EXTT9=
EXTT10=
EXTT11=
EXTT12=
EXTT13=
EXTT14=
EXTT15=
EXTT16=
EXTT17=
PLAYORDER=
